<?xml version="1.0" encoding="iso-8859-1"?>
<!-- Uploaded to: SVG Repo, www.svgrepo.com, Generator: SVG Repo Mixer Tools -->
<!DOCTYPE svg PUBLIC "-//W3C//DTD SVG 1.1//EN" "http://www.w3.org/Graphics/SVG/1.1/DTD/svg11.dtd">
<svg fill="#000000" version="1.1" id="Capa_1" xmlns="http://www.w3.org/2000/svg" xmlns:xlink="http://www.w3.org/1999/xlink" 
	 width="800px" height="800px" viewBox="0 0 31.256 31.256"
	 xml:space="preserve">
<g>
	<g>
		<path d="M13.153,12.339c0.169,1.766,0.251,5.123-1.091,7.763c-0.109,0.213-0.217,0.42-0.325,0.618
			c-2.334,0.716-4.799,2.072-5.21,3.565c-0.161,0.59-0.013,1.18,0.406,1.619c0.437,0.455,0.98,0.697,1.574,0.697
			c1.437,0,2.931-1.371,4.563-4.187c0.592-0.146,4.003-0.562,4.72-0.554c1.967,2.011,3.559,2.988,4.859,2.988
			c0.816,0,1.519-0.412,1.929-1.133c0.284-0.504,0.285-1.086,0.003-1.597c-0.816-1.474-3.994-2.074-5.9-2.211
			c-0.164-0.179-0.33-0.365-0.5-0.558c-1.952-2.23-2.75-5.506-3.045-7.218c-0.037-0.392-0.079-0.718-0.114-0.957
			c-0.126-0.906-0.695-1.042-1.023-1.042c-0.285,0-0.558,0.123-0.747,0.338c-0.305,0.346-0.259,0.72-0.229,0.97
			C13.051,11.686,13.095,12.01,13.153,12.339z M8.591,24.6c0.187-0.207,0.552-0.512,1.105-0.842C9.18,24.318,8.8,24.549,8.591,24.6z
			 M22.545,22.857c-0.167-0.021-0.485-0.105-0.995-0.418C21.99,22.582,22.325,22.73,22.545,22.857z M14.886,17.92
			c0.365,0.741,0.771,1.416,1.217,2.021c-0.218,0.021-1.756,0.22-1.892,0.237C14.495,19.482,14.72,18.727,14.886,17.92z"/>
		<path d="M11.089,0L2.995,8.546v22.71h25.266V0H11.089z M10.375,3.594v3.787H6.788L10.375,3.594z M26.306,29.302H4.948V9.335h7.381
			V1.954h13.979v27.348H26.306z"/>
	</g>
</g>
</svg>